# xmcd
#
# Track frame offsets:
#  183
#  11185
#  22808
#  35550
#  46390
#  56123
#  69228
#  79878
#  89495
#  101988
#  113435
#  123800
#  134760
#  144263
#  158178
#  169213
#  180695
#  189603
#  201078
#  211783
#  221485
#  234268
#  243745
#  256200
#
# Disc length: 3593 seconds
#
# Revision: 0
# Processed by: cddbd v1.5.1PL2 Copyright (c) Steve Scherf et al.
# Submitted via: Collectorz.com_Music_Collector 6.10
#
DISCID=550e0718
DTITLE=Various Artist - Authentic Excello R and B
DYEAR=1993
DGENRE=Blues
TTITLE0=Lightnin' Slim - I'm Evil
TTITLE1=Lazy Lester - You're Gonna Ruin Me Baby
TTITLE2=Slim Harpo - I Got Love If You Want It
TTITLE3=Jimmy Anderson - Going Through The Park
TTITLE4=Lightnin' Slim - I'm Warning You Baby
TTITLE5=Lonesome Sundown - Lonesome Lonely Blues
TTITLE6=Leroy Washington - Wild Cherry
TTITLE7=Silas Hogan - You're Too Late Baby
TTITLE8=Lazy Lester - I'm A Lover Not A Fighter
TTITLE9=Slim Harpo - I Love The Life I'm Living
TTITLE10=Jimmy Anderson - Naggin'
TTITLE11=Silas Hogan - I'm Gonna Quit You Pretty Baby
TTITLE12=Lonesome Sundown - I'm Glad She's Mine
TTITLE13=Slim Harpo - I'm A King Bee
TTITLE14=Whispering Smith - Mean Woman Blues
TTITLE15=Lightnin' Slim - Loving Around The Clock
TTITLE16=Lazy Lester - Tell Me Pretty Baby
TTITLE17=Tabby Thomas - Hoodoo Party
TTITLE18=Silas Hogan - Lonesome La La
TTITLE19=Whispering Smith - Wake Up Old Maid
TTITLE20=Lightnin' Slim - I'm Tired Of Waitin' Baby
TTITLE21=Lonesome Sundown - Gonna Stick To You Baby
TTITLE22=Arthur Gunter - No Naggin' No Draggin'
TTITLE23=Shyguy Douglas - I'm Doin' Alright
EXTD=
EXTT0=
EXTT1=
EXTT2=
EXTT3=
EXTT4=
EXTT5=
EXTT6=
EXTT7=
EXTT8=
EXTT9=
EXTT10=
EXTT11=
EXTT12=
EXTT13=
EXTT14=
EXTT15=
EXTT16=
EXTT17=
EXTT18=
EXTT19=
EXTT20=
EXTT21=
EXTT22=
EXTT23=
PLAYORDER=
